<svg width="1200" height="625" viewBox="0 0 1200 625" fill="none" xmlns="http://www.w3.org/2000/svg">
    <defs>
        <style>
            @import
            url('https://fonts.googleapis.com/css2?family=Poppins:ital,wght@0,100;0,200;0,300;0,400;0,500;0,600;0,700;0,800;0,900;1,100;1,200;1,300;1,400;1,500;1,600;1,700;1,800;1,900&amp;display=swap');
        </style>
    </defs>
    <rect width="1200" height="625" fill="#F6F6F6"/>
    <rect width="625" height="625" fill="white"/>
    <text fill="black" xml:space="preserve" style="white-space: pre" font-family="Poppins" font-size="70"
          font-weight="500" letter-spacing="0em"><tspan x="673" y="350.5"> </tspan>
        <tspan x="673" y="424.5"> </tspan>
        <tspan x="673" y="498.5"> </tspan>
        <tspan x="673" y="572.5"> </tspan></text>

    <g transform="translate(240 0)">
        <g>
            <path d="M 789.156 76.985 C 787.53 76.985 786.06 76.707 784.746 76.15 C 783.454 75.593 782.43 74.791 781.672 73.744 C 780.915 72.698 780.525 71.461 780.503 70.036 L 785.514 70.036 C 785.581 70.994 785.915 71.751 786.517 72.308 C 787.14 72.865 787.987 73.143 789.056 73.143 C 790.147 73.143 791.005 72.887 791.629 72.375 C 792.252 71.84 792.564 71.15 792.564 70.303 C 792.564 69.613 792.352 69.045 791.929 68.599 C 791.506 68.154 790.971 67.809 790.326 67.564 C 789.702 67.296 788.833 67.007 787.72 66.695 C 786.205 66.249 784.969 65.815 784.011 65.392 C 783.076 64.946 782.263 64.289 781.572 63.421 C 780.904 62.53 780.57 61.349 780.57 59.879 C 780.57 58.498 780.915 57.295 781.605 56.271 C 782.296 55.246 783.265 54.467 784.512 53.932 C 785.759 53.375 787.185 53.097 788.789 53.097 C 791.194 53.097 793.143 53.687 794.635 54.868 C 796.15 56.026 796.985 57.652 797.141 59.745 L 791.996 59.745 C 791.952 58.944 791.606 58.287 790.96 57.774 C 790.337 57.24 789.501 56.972 788.455 56.972 C 787.541 56.972 786.806 57.206 786.249 57.674 C 785.715 58.142 785.448 58.821 785.448 59.712 C 785.448 60.336 785.648 60.859 786.049 61.282 C 786.472 61.683 786.985 62.017 787.586 62.285 C 788.21 62.53 789.078 62.819 790.192 63.153 C 791.707 63.599 792.943 64.044 793.9 64.49 C 794.858 64.935 795.682 65.603 796.373 66.494 C 797.063 67.385 797.409 68.555 797.409 70.002 C 797.409 71.25 797.086 72.408 796.44 73.477 C 795.794 74.546 794.847 75.404 793.6 76.05 C 792.352 76.673 790.871 76.985 789.156 76.985 Z" fill="#21252C"></path>
            <path d="M 800.261 67.497 C 800.261 65.581 800.651 63.911 801.43 62.485 C 802.21 61.037 803.29 59.924 804.671 59.144 C 806.052 58.342 807.633 57.941 809.415 57.941 C 811.71 57.941 813.603 58.52 815.095 59.679 C 816.61 60.815 817.623 62.418 818.135 64.49 L 813.09 64.49 C 812.823 63.688 812.367 63.064 811.721 62.619 C 811.097 62.151 810.317 61.917 809.382 61.917 C 808.046 61.917 806.988 62.407 806.208 63.387 C 805.428 64.345 805.039 65.715 805.039 67.497 C 805.039 69.256 805.428 70.626 806.208 71.606 C 806.988 72.564 808.046 73.043 809.382 73.043 C 811.275 73.043 812.511 72.196 813.09 70.504 L 818.135 70.504 C 817.623 72.508 816.61 74.101 815.095 75.281 C 813.581 76.462 811.687 77.052 809.415 77.052 C 807.633 77.052 806.052 76.662 804.671 75.883 C 803.29 75.081 802.21 73.967 801.43 72.542 C 800.651 71.094 800.261 69.412 800.261 67.497 Z" fill="#21252C"></path>
            <path d="M 820.359 67.43 C 820.359 65.559 820.727 63.9 821.462 62.452 C 822.219 61.004 823.233 59.89 824.502 59.111 C 825.794 58.331 827.231 57.941 828.812 57.941 C 830.193 57.941 831.396 58.22 832.42 58.777 C 833.467 59.333 834.303 60.035 834.926 60.881 L 834.926 58.242 L 839.637 58.242 L 839.637 76.751 L 834.926 76.751 L 834.926 74.045 C 834.325 74.914 833.49 75.638 832.42 76.217 C 831.374 76.774 830.16 77.052 828.779 77.052 C 827.22 77.052 825.794 76.651 824.502 75.849 C 823.233 75.047 822.219 73.923 821.462 72.475 C 820.727 71.005 820.359 69.323 820.359 67.43 Z M 834.926 67.497 C 834.926 66.361 834.703 65.392 834.258 64.59 C 833.813 63.766 833.211 63.142 832.454 62.719 C 831.697 62.274 830.884 62.051 830.015 62.051 C 829.146 62.051 828.344 62.262 827.609 62.686 C 826.874 63.109 826.273 63.732 825.805 64.557 C 825.36 65.358 825.137 66.316 825.137 67.43 C 825.137 68.544 825.36 69.524 825.805 70.37 C 826.273 71.194 826.874 71.829 827.609 72.274 C 828.367 72.72 829.168 72.943 830.015 72.943 C 830.884 72.943 831.697 72.731 832.454 72.308 C 833.211 71.862 833.813 71.239 834.258 70.437 C 834.703 69.613 834.926 68.633 834.926 67.497 Z" fill="#21252C"></path>
            <path d="M 854.462 57.975 C 856.667 57.975 858.449 58.676 859.808 60.08 C 861.167 61.461 861.846 63.398 861.846 65.893 L 861.846 76.751 L 857.169 76.751 L 857.169 66.528 C 857.169 65.058 856.801 63.933 856.066 63.153 C 855.331 62.352 854.329 61.951 853.059 61.951 C 851.767 61.951 850.743 62.352 849.985 63.153 C 849.25 63.933 848.883 65.058 848.883 66.528 L 848.883 76.751 L 844.205 76.751 L 844.205 58.242 L 848.883 58.242 L 848.883 60.547 C 849.506 59.745 850.297 59.122 851.255 58.676 C 852.235 58.209 853.304 57.975 854.462 57.975 Z" fill="#21252C"></path>
            <path d="M 891.169 53.431 L 891.169 76.752 L 886.491 76.752 L 886.491 61.583 L 880.244 76.752 L 876.702 76.752 L 870.421 61.583 L 870.421 76.752 L 865.744 76.752 L 865.744 53.431 L 871.056 53.431 L 878.473 70.771 L 885.89 53.431 L 891.169 53.431 Z" fill="#00ADB5"></path>
            <path d="M 913 67.096 C 913 67.764 912.955 68.366 912.866 68.9 L 899.335 68.9 C 899.446 70.237 899.914 71.283 900.738 72.041 C 901.562 72.798 902.576 73.177 903.778 73.177 C 905.516 73.177 906.752 72.431 907.487 70.938 L 912.532 70.938 C 911.997 72.72 910.973 74.19 909.458 75.348 C 907.944 76.484 906.084 77.052 903.879 77.052 C 902.097 77.052 900.493 76.662 899.068 75.883 C 897.664 75.081 896.562 73.956 895.76 72.508 C 894.98 71.061 894.591 69.39 894.591 67.497 C 894.591 65.581 894.98 63.9 895.76 62.452 C 896.539 61.004 897.631 59.891 899.034 59.111 C 900.437 58.331 902.052 57.942 903.879 57.942 C 905.638 57.942 907.209 58.32 908.589 59.078 C 909.993 59.835 911.073 60.915 911.83 62.318 C 912.61 63.699 913 65.292 913 67.096 Z M 908.155 65.76 C 908.133 64.557 907.699 63.599 906.852 62.886 C 906.006 62.151 904.97 61.784 903.745 61.784 C 902.587 61.784 901.607 62.14 900.805 62.853 C 900.025 63.543 899.546 64.512 899.368 65.76 L 908.155 65.76 Z" fill="#00ADB5"></path>
        </g>
        <g transform="matrix(1, 0, 0, 1, 12.25, 0)">
            <path d="M 795.504 89.069 L 795.504 92.844 L 785.782 92.844 L 785.782 98.824 L 793.232 98.824 L 793.232 102.533 L 785.782 102.533 L 785.782 112.389 L 781.104 112.389 L 781.104 89.069 L 795.504 89.069 Z" fill="#21252C"></path>
            <path d="M 801.193 91.675 C 800.369 91.675 799.678 91.418 799.122 90.906 C 798.587 90.372 798.32 89.715 798.32 88.935 C 798.32 88.155 798.587 87.509 799.122 86.997 C 799.678 86.463 800.369 86.195 801.193 86.195 C 802.017 86.195 802.696 86.463 803.231 86.997 C 803.788 87.509 804.066 88.155 804.066 88.935 C 804.066 89.715 803.788 90.372 803.231 90.906 C 802.696 91.418 802.017 91.675 801.193 91.675 Z M 803.498 93.88 L 803.498 112.389 L 798.821 112.389 L 798.821 93.88 L 803.498 93.88 Z" fill="#21252C"></path>
            <path d="M 818.377 93.612 C 820.582 93.612 822.364 94.314 823.722 95.717 C 825.081 97.098 825.76 99.036 825.76 101.531 L 825.76 112.389 L 821.083 112.389 L 821.083 102.165 C 821.083 100.695 820.715 99.571 819.98 98.791 C 819.245 97.989 818.243 97.588 816.973 97.588 C 815.682 97.588 814.657 97.989 813.9 98.791 C 813.165 99.571 812.797 100.695 812.797 102.165 L 812.797 112.389 L 808.12 112.389 L 808.12 93.88 L 812.797 93.88 L 812.797 96.185 C 813.421 95.383 814.211 94.759 815.169 94.314 C 816.149 93.846 817.218 93.612 818.377 93.612 Z" fill="#21252C"></path>
            <path d="M 829.006 103.067 C 829.006 101.196 829.373 99.537 830.108 98.089 C 830.865 96.642 831.89 95.528 833.182 94.748 C 834.474 93.969 835.91 93.579 837.492 93.579 C 838.695 93.579 839.842 93.846 840.933 94.381 C 842.024 94.893 842.893 95.584 843.539 96.452 L 843.539 87.665 L 848.283 87.665 L 848.283 112.389 L 843.539 112.389 L 843.539 109.649 C 842.96 110.563 842.147 111.298 841.1 111.854 C 840.053 112.411 838.839 112.69 837.458 112.69 C 835.899 112.69 834.474 112.289 833.182 111.487 C 831.89 110.685 830.865 109.56 830.108 108.112 C 829.373 106.642 829.006 104.961 829.006 103.067 Z M 843.572 103.134 C 843.572 101.998 843.35 101.029 842.904 100.228 C 842.459 99.404 841.857 98.78 841.1 98.357 C 840.343 97.911 839.53 97.688 838.661 97.688 C 837.792 97.688 836.991 97.9 836.256 98.323 C 835.521 98.746 834.919 99.37 834.451 100.194 C 834.006 100.996 833.783 101.954 833.783 103.067 C 833.783 104.181 834.006 105.161 834.451 106.008 C 834.919 106.832 835.521 107.466 836.256 107.912 C 837.013 108.357 837.815 108.58 838.661 108.58 C 839.53 108.58 840.343 108.369 841.1 107.945 C 841.857 107.5 842.459 106.876 842.904 106.074 C 843.35 105.25 843.572 104.27 843.572 103.134 Z" fill="#21252C"></path>
            <path d="M 878.919 89.069 L 878.919 112.389 L 874.241 112.389 L 874.241 97.221 L 867.994 112.389 L 864.452 112.389 L 858.171 97.221 L 858.171 112.389 L 853.494 112.389 L 853.494 89.069 L 858.806 89.069 L 866.223 106.409 L 873.64 89.069 L 878.919 89.069 Z" fill="#00ADB5"></path>
            <path d="M 900.75 102.734 C 900.75 103.402 900.705 104.003 900.616 104.538 L 887.085 104.538 C 887.196 105.874 887.664 106.921 888.488 107.678 C 889.312 108.436 890.326 108.814 891.528 108.814 C 893.266 108.814 894.502 108.068 895.237 106.576 L 900.282 106.576 C 899.747 108.358 898.723 109.828 897.208 110.986 C 895.694 112.122 893.834 112.69 891.629 112.69 C 889.847 112.69 888.243 112.3 886.818 111.521 C 885.414 110.719 884.312 109.594 883.51 108.146 C 882.73 106.698 882.341 105.028 882.341 103.135 C 882.341 101.219 882.73 99.537 883.51 98.09 C 884.289 96.642 885.381 95.528 886.784 94.749 C 888.187 93.969 889.802 93.579 891.629 93.579 C 893.388 93.579 894.959 93.958 896.339 94.715 C 897.743 95.473 898.823 96.553 899.58 97.956 C 900.36 99.337 900.75 100.93 900.75 102.734 Z M 895.905 101.397 C 895.883 100.194 895.449 99.237 894.602 98.524 C 893.756 97.789 892.72 97.421 891.495 97.421 C 890.337 97.421 889.357 97.778 888.555 98.491 C 887.775 99.181 887.296 100.15 887.118 101.397 L 895.905 101.397 Z" fill="#00ADB5"></path>
        </g>
        <path fill-rule="evenodd" clip-rule="evenodd" d="M694.419 48.6758C694.14 47.7755 693.844 46.4878 693.815 45.0115C693.736 41.0441 694.372 40 694.372 40C694.372 40 684.905 43.341 678.223 56.7051C673.473 66.2068 672.915 74.9395 673.009 79.3364C673.003 79.5877 673 79.8397 673 80.0922C673 97.2319 687.222 111.631 706.461 115.696L706.41 115.73C706.54 115.742 706.669 115.754 706.796 115.766C708.611 116.137 710.471 116.417 712.367 116.598C722.989 118.921 719.929 123.897 718.344 126.473C718.259 126.612 718.178 126.743 718.104 126.867C745.12 122.814 757.208 103.834 760.845 88.7688C761.611 86.1578 762.039 83.438 762.089 80.6425L762.094 80.6492C762.094 80.6492 763.323 70.2993 756.526 56.7051C749.844 43.341 740.377 40 740.377 40C740.377 40 741.013 41.0441 740.934 45.0115C740.907 46.4081 740.64 47.6359 740.375 48.5266C733.699 45.2334 725.891 43.3409 717.547 43.3409C709.078 43.3409 701.161 45.2906 694.419 48.6758Z" fill="#00ADB5"></path>
        <path d="M754.299 78.9787C754.299 94.9704 737.844 106.821 717.547 106.821C697.25 106.821 680.796 94.9704 680.796 78.9787C680.796 66.1714 688.035 58.3756 697.501 57.262C713.01 55.4375 717.547 70.0692 717.547 70.0692C717.547 70.0692 720.331 57.262 735.366 57.262C745.389 57.262 754.299 66.1714 754.299 78.9787Z" fill="white"></path>
        <path d="M687.902 66.4102H710.176V88.6837C702.751 88.6695 695.327 88.6646 687.902 88.6688V66.4102ZM691.629 70.1797C691.615 75.1195 691.61 80.0606 691.615 85.0032H706.464C706.464 80.0635 706.459 75.1138 706.449 70.1542C701.505 70.1613 696.565 70.1698 691.629 70.1797Z" fill="#21252C"></path>
        <path d="M703.812 72.774H694.266V82.3198H703.812V72.774Z" fill="#21252C"></path>
        <path d="M724.918 66.4102H747.192V88.6837C739.767 88.6695 732.343 88.6646 724.918 88.6688V66.4102ZM728.646 70.1797C728.631 75.1195 728.626 80.0606 728.631 85.0032H743.48C743.48 80.0635 743.475 75.1138 743.465 70.1542C738.521 70.1613 733.581 70.1698 728.646 70.1797Z" fill="#21252C"></path>
        <path d="M740.829 72.774H731.283V82.3198H740.829V72.774Z" fill="#21252C"></path>
        <path d="M711.979 91.1722C714.039 90.0533 715.874 88.5622 717.391 86.7744C718.913 88.5643 720.751 90.0581 722.815 91.181C720.985 94.3415 719.175 97.5079 717.384 100.68C715.62 97.4909 713.785 94.3386 711.979 91.1722Z" fill="#00ADB5"></path>
    </g>

    <text fill="#03949A" xml:space="preserve" style="white-space: pre" font-family="Poppins"
          font-size="25" font-weight="800" letter-spacing="0em">
        <tspan x="673" y="165"> </tspan></text>

    <defs>
        <clipPath id="clip0">
            <rect x="257.812" y="150.52" width="134.375" height="269.052" rx="4" fill="white"/>
        </clipPath>
        <clipPath id="clip1">
            <rect width="12.691" height="12.6969" fill="white" transform="translate(308.576 218.555)"/>
        </clipPath>
        <clipPath id="clip2">
            <rect width="12.691" height="12.6969" fill="white" transform="translate(328.732 218.555)"/>
        </clipPath>
        <clipPath id="clip3">
            <rect width="8.95833" height="8.96248" fill="white" transform="translate(371.962 355.818)"/>
        </clipPath>
    </defs>
</svg>
